<?xml version="1.0" encoding="UTF-8"?>
<svg version="1.1" viewBox="0 0 3052.6 1059.9" xml:space="preserve" xmlns="http://www.w3.org/2000/svg"><defs><clipPath id="clipPath18"><path d="m0 2e3h2e3v-2e3h-2e3z"/></clipPath></defs><g transform="matrix(1.3333 0 0 -1.3333 -721.41 2044.1)"><path id="wale" d="m684.83 1405.1c12.477-54.791 32.411-95.929 9.6836-115.56-27.612-23.863-149.98-132.92-106.83-291.67 8.726-32.064 25.084-61.728 45.631-88.644 6.065-7.9831 12.563-15.749 19.324-23.252 12.565-14.004 26.133-27.134 40.093-39.348 0 0-74.982 69.367 0 0 74.982-69.367 468.42-98.014 597.04-22.99s127.25 149.5 128.08 152.25c-159.36-68.359-285.26 15.486-288.05 17.361 4.0561-0.8719 214.63-47.637 304.36 71.369 14.657 134.32-113.12 210.83-113.12 210.83-100.11 54.53-189.11 56.972-277.58-2.1813-78.481-52.523-180.65-228.46-282.11-184.49-101.47 43.929-55.927 136.72-39.087 167.12 16.838 30.363 20.634 21.158 107.44 20.591 86.811-0.5231 95.493 40.702 95.493 40.702s-42.882-5.4098-77.606 17.362c-34.726 22.815-79.222 10.339-79.222 10.339 7.592 21.157-6.5014 56.972-34.725 83.016-28.225 26.044-26.698 67.661-26.698 67.661s-34.593-35.642-22.117-90.476m412.03-328.36c-3.7074 25.128 13.655 48.554 38.781 52.305 25.13 3.7083 48.553-13.654 52.262-38.782 3.7517-25.127-13.612-48.553-38.737-52.261-2.2982-0.3427-4.5843-0.5091-6.8401-0.5101-22.411-1e-3 -42.057 16.419-45.466 39.248m52.872 17.842c-13.001-1.9625-21.986-14.047-20.068-27.047 1.9202-13.043 14.049-21.986 27.048-20.067 13.001 1.9202 21.986 14.047 20.069 27.047-1.7458 11.822-11.935 20.325-23.543 20.325-1.1572 0-2.3274-0.084-3.5057-0.258m3.4886-32.5c-0.7419 4.8433 2.6187 9.3802 7.5043 10.122 4.8433 0.6965 9.3792-2.662 10.121-7.5043 0.6986-4.8856-2.661-9.4225-7.5023-10.12-0.4556-0.07-0.9082-0.1028-1.3547-0.1028-4.3454 0-8.1343 3.1751-8.7683 7.6051" fill="#f6fbfe"/><g id="logo-title" fill="#dfe0e2"><g transform="matrix(1.5322 0 0 1.5322 565.99 37.571)"><g clip-path="url(#clipPath18)" fill="#dfe0e2"><g transform="translate(628.19 506.35)"><path d="m0 0c7.491 0 13.258 1.837 17.293 5.51 4.033 3.677 6.054 8.898 6.054 15.675 0 6.34-2.308 11.203-6.919 14.591-4.613 3.385-11.24 5.08-19.888 5.08h-21.401v-40.856zm-6.27 65.067c7.06 0 12.718 1.84 16.97 5.514 4.248 3.673 6.377 8.324 6.377 13.943 0 6.197-1.912 10.84-5.728 13.944-3.821 3.096-9.695 4.644-17.619 4.644h-18.591v-38.045zm-44.964-87.444c-1.296 1.225-1.946 3.279-1.946 6.164v135.32c0 2.882 0.65 4.937 1.946 6.161 1.296 1.225 3.313 1.837 6.054 1.837h41.289c17.003 0 29.615-3.423 37.83-10.266 8.214-6.848 12.322-16.179 12.322-27.993 0-7.21-2.269-13.873-6.81-19.999-4.539-6.126-10.126-10.415-16.753-12.864l0.216-0.862c8.501-2.02 15.564-6.27 21.185-12.755 5.621-6.484 8.43-14.123 8.43-22.912 0-14.27-4.612-25.114-13.835-32.538s-22.914-11.133-41.072-11.133h-42.802c-2.741 0-4.758 0.612-6.054 1.837" fill="#dfe0e2"/></g><g transform="translate(705.37 483.97)"><path d="m0 0c-1.296 1.225-1.945 3.279-1.945 6.164v135.32c0 2.882 0.649 4.937 1.945 6.161 1.297 1.225 3.313 1.837 6.052 1.837h75.661c2.018 0 3.494-0.753 4.433-2.265 0.935-1.514 1.404-3.861 1.404-7.031v-5.619c0-3.17-0.469-5.513-1.404-7.026-0.939-1.513-2.415-2.27-4.433-2.27h-55.34v-37.615h49.288c2.016 0 3.492-0.721 4.432-2.161 0.936-1.442 1.406-3.82 1.406-7.135v-5.616c0-3.173-0.47-5.517-1.406-7.029-0.94-1.513-2.416-2.266-4.432-2.266h-49.288v-41.075h55.556c2.018 0 3.494-0.76 4.432-2.273 0.936-1.512 1.406-3.856 1.406-7.023v-5.622c0-3.17-0.47-5.51-1.406-7.022-0.938-1.514-2.414-2.274-4.432-2.274h-75.877c-2.739 0-4.755 0.612-6.052 1.837" fill="#dfe0e2"/></g><g transform="translate(872.03 568.39)"><path d="m0 0c3.601 0 6.988 0.975 10.16 2.917 3.168 1.949 5.654 4.539 7.459 7.783 1.799 3.244 2.702 6.812 2.702 10.703 0 6.193-1.946 10.985-5.837 14.376-3.892 3.385-9.226 5.077-15.997 5.077h-21.834v-40.856zm-51.665-80.414v137.48c0 2.882 0.61 4.937 1.836 6.161 1.223 1.225 3.206 1.837 5.945 1.837h40.209c17.868 0 31.2-3.314 39.992-9.943 8.79-6.629 13.186-16.572 13.186-29.829 0-8.36-2.236-15.566-6.701-21.618-4.469-6.055-10.592-10.594-18.375-13.619v-0.867c3.168-1.157 6.196-3.676 9.079-7.568 2.882-3.891 5.477-8.789 7.783-14.7l18.376-45.824c0.573-1.731 0.863-2.955 0.863-3.677 0-1.298-0.973-2.305-2.919-3.026-1.945-0.721-4.862-1.08-8.754-1.08h-6.486c-3.026 0-5.511 0.359-7.457 1.08s-3.209 1.728-3.783 3.026l-16.861 42.369c-2.74 5.908-5.838 10.018-9.296 12.325-3.459 2.302-8.793 3.455-15.997 3.455h-12.322v-55.985c0-4.184-3.821-6.27-11.458-6.27h-5.404c-7.64 0-11.456 2.086-11.456 6.27" fill="#dfe0e2"/></g><g transform="translate(1020.5 539.64)"><path d="m0 0-15.782 47.556c-0.723 1.872-1.296 3.891-1.73 6.051-0.43 2.164-0.793 4.328-1.08 6.489-0.145 0.288-0.216 0.573-0.216 0.865h-0.864l-0.216-1.513c-0.433-2.019-0.903-4.039-1.405-6.055-0.507-2.02-1.047-3.965-1.623-5.837l-16.213-47.556zm-84.524-53.614c0 0.721 0.214 1.731 0.648 3.025l0.216 0.651 48.855 140.08c1.007 2.737 4.682 4.11 11.026 4.11h9.511c6.485 0 10.161-1.373 11.024-4.11l48.855-140.08c0.433-1.298 0.65-2.522 0.65-3.676 0-2.885-3.459-4.321-10.376-4.321h-6.702c-6.343 0-10.018 1.365-11.024 4.106l-9.945 29.615h-55.34l-9.945-29.615c-1.01-2.741-4.182-4.106-9.511-4.106h-6.053c-7.927 0-11.889 1.436-11.889 4.321" fill="#dfe0e2"/></g><g transform="translate(1104.2 487.98)"><path d="m0 0v121.27h-36.75c-2.02 0-3.495 0.756-4.432 2.269s-1.403 3.856-1.403 7.026v5.62c0 3.169 0.466 5.516 1.403 7.03 0.937 1.513 2.412 2.265 4.432 2.265h101.82c2.162 0 3.675-0.752 4.538-2.265 0.867-1.514 1.299-3.861 1.299-7.03v-5.62c0-3.17-0.432-5.513-1.299-7.026-0.863-1.513-2.376-2.269-4.538-2.269h-36.534v-121.27c0-4.184-3.819-6.27-11.458-6.27h-5.619c-7.641 0-11.458 2.086-11.458 6.27" fill="#dfe0e2"/></g><g transform="translate(1197.8 483.97)"><path d="m0 0c-1.296 1.225-1.945 3.279-1.945 6.164v135.32c0 2.882 0.649 4.937 1.945 6.161 1.297 1.225 3.313 1.837 6.052 1.837h75.661c2.018 0 3.494-0.753 4.433-2.265 0.935-1.514 1.404-3.861 1.404-7.031v-5.619c0-3.17-0.469-5.513-1.404-7.026-0.939-1.513-2.415-2.27-4.433-2.27h-55.34v-37.615h49.288c2.017 0 3.492-0.721 4.432-2.161 0.936-1.442 1.406-3.82 1.406-7.135v-5.616c0-3.173-0.47-5.517-1.406-7.029-0.94-1.513-2.415-2.266-4.432-2.266h-49.288v-41.075h55.557c2.017 0 3.494-0.76 4.431-2.273 0.936-1.512 1.406-3.856 1.406-7.023v-5.622c0-3.17-0.47-5.51-1.406-7.022-0.937-1.514-2.414-2.274-4.431-2.274h-75.878c-2.739 0-4.755 0.612-6.052 1.837" fill="#dfe0e2"/></g><g transform="translate(1364.5 568.39)"><path d="m0 0c3.602 0 6.988 0.975 10.16 2.917 3.168 1.949 5.653 4.539 7.459 7.783 1.8 3.244 2.702 6.812 2.702 10.703 0 6.193-1.946 10.985-5.837 14.376-3.891 3.385-9.225 5.077-15.997 5.077h-21.834v-40.856zm-51.665-80.414v137.48c0 2.882 0.61 4.937 1.837 6.161 1.223 1.225 3.205 1.837 5.944 1.837h40.209c17.868 0 31.2-3.314 39.992-9.943 8.789-6.629 13.186-16.572 13.186-29.829 0-8.36-2.235-15.566-6.7-21.618-4.469-6.055-10.593-10.594-18.376-13.619v-0.867c3.169-1.157 6.196-3.676 9.08-7.568 2.881-3.891 5.476-8.789 7.782-14.7l18.375-45.824c0.574-1.731 0.864-2.955 0.864-3.677 0-1.298-0.972-2.305-2.919-3.026-1.945-0.721-4.862-1.08-8.754-1.08h-6.486c-3.025 0-5.512 0.359-7.457 1.08s-3.209 1.728-3.782 3.026l-16.862 42.369c-2.74 5.908-5.837 10.018-9.296 12.325-3.459 2.302-8.793 3.455-15.996 3.455h-12.323v-55.985c0-4.184-3.821-6.27-11.458-6.27h-5.404c-7.64 0-11.456 2.086-11.456 6.27" fill="#dfe0e2"/></g></g></g><g transform="matrix(1.5322 0 0 -1.5322 565.99 37.571)" stop-color="#000000" style="font-variation-settings:normal" aria-label="WAHL"><path d="m811.04-835.13-29.642 166q-0.98807 4.9403-4.4463 8.5221t-8.3986 4.5698q-5.0638 0.86456-9.6336-1.1116-4.4463-1.9761-7.04-6.1754l-58.79-96.584-58.913 96.584q-2.0996 3.5817-5.8049 5.5579-3.5817 1.9761-7.781 1.9761-5.8049 0-10.251-3.7052-4.4463-3.7052-5.4344-9.6336l-29.889-166h32.606l21.243 116.96 50.638-80.774q2.0996-3.5817 5.6814-5.5579 3.7052-1.9761 7.9045-1.9761t7.781 1.9761q3.5817 1.9761 5.9284 5.5579l50.391 80.774 21.243-116.96z" stop-color="#000000" style="font-variation-settings:normal"/><path d="m1010.3-658.02h-32.112v-43.475h-112.89v43.475h-32.112v-88.555q0-19.391 6.6694-35.694t18.526-28.036q11.857-11.733 28.036-18.279 16.18-6.5459 35.323-6.5459h72.376q3.3347 0 6.299 1.2351 2.9642 1.2351 5.1873 3.4582 2.2232 2.2232 3.4583 5.1874 1.235 2.9642 1.235 6.2989zm-145-75.587h112.89v-69.412h-56.443q-1.4821 0-6.2989 0.49403-4.6933 0.37052-10.992 2.0996-6.1754 1.7291-13.092 5.3109-6.9165 3.5817-12.721 9.8807t-9.6336 15.809q-3.7052 9.3866-3.7052 22.849z" stop-color="#000000" style="font-variation-settings:normal"/><path d="m1079.9-762.75h112.76v-72.376h32.112v177.11h-32.112v-72.376h-112.76v72.376h-32.112v-177.11h32.112z" stop-color="#000000" style="font-variation-settings:normal"/><path d="m1425-658.02h-146.48q-3.4582 0-6.4224-1.2351t-5.1874-3.3347q-2.0996-2.2232-3.3347-5.1874t-1.2351-6.4224v-160.93h32.112v145h130.55z" stop-color="#000000" style="font-variation-settings:normal"/></g></g></g></svg>
