<?xml version="1.0" encoding="UTF-8" standalone="no"?>
<svg
   xmlns:dc="http://purl.org/dc/elements/1.1/"
   xmlns:cc="http://creativecommons.org/ns#"
   xmlns:rdf="http://www.w3.org/1999/02/22-rdf-syntax-ns#"
   xmlns:svg="http://www.w3.org/2000/svg"
   xmlns="http://www.w3.org/2000/svg"
   xmlns:sodipodi="http://sodipodi.sourceforge.net/DTD/sodipodi-0.dtd"
   xmlns:inkscape="http://www.inkscape.org/namespaces/inkscape"
   inkscape:export-ydpi="100"
   inkscape:export-xdpi="100"
   inkscape:export-filename="/home/martin/cloud-hel/projects/walberater/logo-final/wahlberater-fixed-border.png"
   inkscape:version="1.0 (4035a4fb49, 2020-05-01)"
   sodipodi:docname="wahlberater-fixed-border2.svg"
   viewBox="0 0 1316.7865 1451.8159"
   height="1451.8159"
   width="1316.7865"
   xml:space="preserve"
   id="svg2"
   version="1.1"><metadata
     id="metadata8"><rdf:RDF><cc:Work
         rdf:about=""><dc:format>image/svg+xml</dc:format><dc:type
           rdf:resource="http://purl.org/dc/dcmitype/StillImage" /><dc:title></dc:title></cc:Work></rdf:RDF></metadata><defs
     id="defs6"><clipPath
       id="clipPath18"
       clipPathUnits="userSpaceOnUse"><path
         id="path16"
         d="M 0,2000 H 2000 V 0 H 0 Z" /></clipPath><linearGradient
       id="linearGradient64"
       spreadMethod="pad"
       gradientTransform="matrix(-82.272858,528.60309,528.60309,82.272858,1067.4669,665.78314)"
       gradientUnits="userSpaceOnUse"
       y2="0"
       x2="1"
       y1="0"
       x1="0"><stop
         id="stop60"
         offset="0"
         style="stop-opacity:1;stop-color:#4044bc" /><stop
         id="stop62"
         offset="1"
         style="stop-opacity:1;stop-color:#1015ab" /></linearGradient><clipPath
       id="clipPath74"
       clipPathUnits="userSpaceOnUse"><path
         id="path72"
         d="M 0,2000 H 2000 V 0 H 0 Z" /></clipPath><clipPath
       id="clipPath18-0"
       clipPathUnits="userSpaceOnUse"><path
         id="path16-3"
         d="M 0,2000 H 2000 V 0 H 0 Z" /></clipPath></defs><sodipodi:namedview
     fit-margin-bottom="50"
     fit-margin-right="50"
     fit-margin-left="50"
     lock-margins="true"
     fit-margin-top="50"
     inkscape:document-rotation="0"
     inkscape:current-layer="g10"
     inkscape:window-maximized="0"
     inkscape:window-y="18"
     inkscape:window-x="1920"
     inkscape:cy="-107.48077"
     inkscape:cx="225.7414"
     inkscape:zoom="0.189"
     showgrid="false"
     id="namedview4"
     inkscape:window-height="1041"
     inkscape:window-width="1916"
     inkscape:pageshadow="2"
     inkscape:pageopacity="1"
     guidetolerance="10"
     gridtolerance="10"
     objecttolerance="10"
     borderopacity="1"
     bordercolor="#666666"
     pagecolor="#ffffff" /><g
     transform="matrix(1.3333333,0,0,-1.3333333,-671.21613,2044.0914)"
     inkscape:label="logo-5-1"
     inkscape:groupmode="layer"
     id="g10"><g
       transform="translate(23.061301,8.9396066)"
       id="g48"><g
         id="g50"><g
           id="g56"><g
             id="g58"><path
               sodipodi:nodetypes="cssssssssszzsssssscsssssssssccsscsssccccssssssssccssssssssccssssssssc"
               id="path66"
               style="fill:#004c99;fill-opacity:1;stroke:none;stroke-width:1"
               d="m 661.76762,1396.1525 c 12.47666,-54.7913 32.4113,-95.9286 9.68357,-115.5598 v 0 C 643.83884,1256.73 521.47218,1147.6706 564.61636,988.92315 v 0 c 8.726,-32.06355 25.08436,-61.72818 45.63084,-88.64403 v 0 c 6.06496,-7.98312 12.56335,-15.74853 19.32381,-23.25187 v 0 c 12.56536,-14.00374 26.13265,-27.13357 40.09305,-39.34816 0,0 -74.98224,69.36709 0,0 74.98224,-69.36708 468.41924,-98.01376 597.03634,-22.9898 128.6171,75.02396 127.2503,149.49926 128.0789,152.248 v 0 c -159.3562,-68.35861 -285.2558,15.48646 -288.0469,17.36129 v 0 c 4.0561,-0.8719 214.6283,-47.63675 304.3639,71.36942 v 0 c 14.6569,134.3172 -113.1185,210.8343 -113.1185,210.8343 v 0 c -100.1147,54.5302 -189.1095,56.9725 -277.5782,-2.1813 v 0 C 941.91902,1211.7977 839.75209,1035.8634 738.2847,1079.8351 v 0 c -101.47041,43.9294 -55.92726,136.7182 -39.08709,167.1226 v 0 c 16.83815,30.3631 20.63417,21.1583 107.44466,20.5908 v 0 c 86.81149,-0.5231 95.49314,40.7019 95.49314,40.7019 v 0 c 0,0 -42.8821,-5.4098 -77.60569,17.3623 v 0 c -34.72561,22.8154 -79.22248,10.3388 -79.22248,10.3388 v 0 c 7.59203,21.1573 -6.50142,56.9725 -34.7246,83.0164 v 0 c -28.2252,26.044 -26.69813,67.6611 -26.69813,67.6611 v 0 c 0,0 -34.59255,-35.6419 -22.11689,-90.4765 M 1073.795,1067.7949 c -3.7074,25.1277 13.6549,48.554 38.7806,52.3046 v 0 c 25.1298,3.7083 48.553,-13.6539 52.2623,-38.7817 v 0 c 3.7517,-25.1267 -13.6116,-48.5529 -38.7373,-52.2612 v 0 c -2.2982,-0.3427 -4.5843,-0.5091 -6.8401,-0.5101 v 0 c -22.4112,-10e-4 -42.0566,16.4189 -45.4655,39.2484 m 52.8721,17.8421 c -13.0008,-1.9625 -21.9859,-14.0471 -20.0677,-27.0469 v 0 c 1.9202,-13.0431 14.0491,-21.9858 27.0479,-20.0667 v 0 c 13.0008,1.9202 21.9858,14.0471 20.0687,27.0469 v 0 c -1.7458,11.8215 -11.9354,20.3247 -23.5432,20.3247 v 0 c -1.1572,0 -2.3274,-0.084 -3.5057,-0.258 m 3.4886,-32.5 c -0.7419,4.8433 2.6187,9.3802 7.5043,10.122 v 0 c 4.8433,0.6965 9.3792,-2.662 10.121,-7.5043 v 0 c 0.6986,-4.8856 -2.661,-9.4225 -7.5023,-10.12 v 0 c -0.4556,-0.07 -0.9082,-0.1028 -1.3547,-0.1028 v 0 c -4.3454,0 -8.1343,3.1751 -8.7683,7.6051" /></g></g></g></g><g
       style="font-style:normal;font-weight:normal;font-size:252.945px;line-height:1.25;font-family:sans-serif;font-variation-settings:normal;letter-spacing:0px;word-spacing:0px;opacity:1;vector-effect:none;fill:#ffffff;fill-opacity:1;stroke:none;stroke-width:0.999998;stroke-linecap:butt;stroke-linejoin:miter;stroke-miterlimit:4;stroke-dasharray:none;stroke-dashoffset:0;stroke-opacity:1;stop-color:#000000;stop-opacity:1"
       id="g886"
       transform="scale(1,-1)"
       aria-label="WAHL"><path
         id="path884"
         style="font-style:normal;font-variant:normal;font-weight:normal;font-stretch:normal;font-size:252.945px;font-family:Audiowide;-inkscape-font-specification:Audiowide;font-variation-settings:normal;vector-effect:none;fill:#ffffff;fill-opacity:1;stroke-width:1.33333;stroke-linecap:butt;stroke-linejoin:miter;stroke-miterlimit:4;stroke-dasharray:none;stroke-dashoffset:0;stroke-opacity:1;stop-color:#000000;stop-opacity:1"
         d="m 988.5625,877.5957 c -52.95707,0.0259 -106.47783,5.04824 -107.53906,14.98828 0.076,14.31587 0,96.50196 0,96.50196 h -74.34961 c 0,0 -0.65774,-83.6004 0,-96.50196 -8.98723,-17.00409 -109.34733,-10.29289 -155.71873,-9.25539 -35.23572,0.78835 -69.20025,2.95995 -103.46291,3.48315 -34.2,1.72232 -67.94061,20.79057 -93.84961,43.3074 -2.02281,1.74942 -3.98933,3.56073 -5.9082,5.41992 3.86348,-21.5785 6.90657,-38.4387 7.80664,-42.95508 3.1458,-15.78508 -117.82174,-15.0719 -120.5625,0 -2.74075,15.07191 -10.95918,60.28759 -16.43946,90.43164 -6.2982,-10.01381 -12.48356,-20.11093 -19.13672,-29.89257 -13.90582,-17.62751 -38.37146,-26.08985 -60.19336,-20.78125 -16.64853,3.75968 -31.14766,15.32562 -39.13086,30.33203 -4.30711,6.86945 -8.61475,13.73795 -12.92187,20.60742 -5.49848,-30.2326 -10.99462,-60.46485 -16.49414,-90.69727 H 50 c 0.141493,0.78472 0.282335,1.56879 0.423828,2.35352 16.12884,89.41924 32.201638,178.8484 48.458984,268.2441 4.964098,20.2541 21.632408,36.9925 41.701168,42.4551 19.5481,5.48 41.69447,-0.1225 56.41211,-14.0722 4.73004,-4.381 8.41971,-9.7284 11.67579,-15.2579 14.73901,-24.1372 29.48434,-48.2721 44.21679,-72.414 16.22524,26.6082 32.3782,53.2604 48.79102,79.75 11.81816,16.2908 32.44966,25.4557 52.44531,23.9199 14.31945,-0.9893 28.01336,-7.7076 37.94727,-18.0039 3.75799,-3.8603 6.98289,-8.2372 9.57617,-12.959 -1.7e-4,9.3776 2.6e-4,18.7552 0,28.1328 h 118.81445 v -57.9668 h 74.51563 v 57.9668 h 92.8789 25.9375 92.87891 v -96.5 h 74.34961 v 96.5 H 999.8418 c 0,0 -0.0178,-8.4975 -0.0215,-10.1797 1.965,1.3277 4.016,2.5334 6.1485,3.5957 10.785,5.5857 23.2035,7.118 35.2089,6.584 h 225.6094 V 1085.916 h -174.0664 c 0,0 0.4297,-174.47252 0,-193.33202 1.1923,-10.04356 -51.2011,-15.01416 -104.15821,-14.98828 z M 594.97852,1011.377 v 16.5742 h -70.26954 c 2.82374,-5.1821 7.3694,-9.4409 12.85352,-11.6778 6.42039,-3.0469 13.5109,-4.4698 20.58008,-4.8183 12.38212,-0.2016 25.82815,-0.086 36.83594,-0.078 z"
         transform="matrix(0.75000002,0,0,0.75000002,503.41211,-1533.0686)"
         sodipodi:nodetypes="cccccscccssccccccccccccccccccccccccccccccccccccsccccccsc" /></g><g
       id="g12"><g
         clip-path="url(#clipPath18)"
         id="g14"><g
           transform="translate(628.1948,506.3496)"
           id="g20"><path
             id="path22"
             style="fill:#333333;fill-opacity:1;fill-rule:nonzero;stroke:none"
             d="m 0,0 c 7.491,0 13.258,1.837 17.293,5.51 4.033,3.677 6.054,8.898 6.054,15.675 0,6.34 -2.308,11.203 -6.919,14.591 -4.613,3.385 -11.24,5.08 -19.888,5.08 H -24.861 V 0 Z m -6.27,65.067 c 7.06,0 12.718,1.84 16.97,5.514 4.248,3.673 6.377,8.324 6.377,13.943 0,6.197 -1.912,10.84 -5.728,13.944 -3.821,3.096 -9.695,4.644 -17.619,4.644 H -24.861 V 65.067 Z m -44.964,-87.444 c -1.296,1.225 -1.946,3.279 -1.946,6.164 V 119.11 c 0,2.882 0.65,4.937 1.946,6.161 1.296,1.225 3.313,1.837 6.054,1.837 h 41.289 c 17.003,0 29.615,-3.423 37.83,-10.266 8.214,-6.848 12.322,-16.179 12.322,-27.993 0,-7.21 -2.269,-13.873 -6.81,-19.999 C 34.912,62.724 29.325,58.435 22.698,55.986 l 0.216,-0.862 c 8.501,-2.02 15.564,-6.27 21.185,-12.755 5.621,-6.484 8.43,-14.123 8.43,-22.912 0,-14.27 -4.612,-25.114 -13.835,-32.538 C 29.471,-20.505 15.78,-24.214 -2.378,-24.214 H -45.18 c -2.741,0 -4.758,0.612 -6.054,1.837" /></g><g
           transform="translate(705.3652,483.9727)"
           id="g24"><path
             id="path26"
             style="fill:#333333;fill-opacity:1;fill-rule:nonzero;stroke:none"
             d="m 0,0 c -1.296,1.225 -1.945,3.279 -1.945,6.164 v 135.323 c 0,2.882 0.649,4.937 1.945,6.161 1.297,1.225 3.313,1.837 6.052,1.837 h 75.661 c 2.018,0 3.494,-0.753 4.433,-2.265 0.935,-1.514 1.404,-3.861 1.404,-7.031 v -5.619 c 0,-3.17 -0.469,-5.513 -1.404,-7.026 -0.939,-1.513 -2.415,-2.27 -4.433,-2.27 H 26.373 V 87.659 h 49.288 c 2.016,0 3.492,-0.721 4.432,-2.161 0.936,-1.442 1.406,-3.82 1.406,-7.135 v -5.616 c 0,-3.173 -0.47,-5.517 -1.406,-7.029 -0.94,-1.513 -2.416,-2.266 -4.432,-2.266 H 26.373 V 22.377 h 55.556 c 2.018,0 3.494,-0.76 4.432,-2.273 0.936,-1.512 1.406,-3.856 1.406,-7.023 V 7.459 c 0,-3.17 -0.47,-5.51 -1.406,-7.022 -0.938,-1.514 -2.414,-2.274 -4.432,-2.274 H 6.052 C 3.313,-1.837 1.297,-1.225 0,0" /></g><g
           transform="translate(872.0332,568.3906)"
           id="g28"><path
             id="path30"
             style="fill:#333333;fill-opacity:1;fill-rule:nonzero;stroke:none"
             d="m 0,0 c 3.601,0 6.988,0.975 10.16,2.917 3.168,1.949 5.654,4.539 7.459,7.783 1.799,3.244 2.702,6.812 2.702,10.703 0,6.193 -1.946,10.985 -5.837,14.376 -3.892,3.385 -9.226,5.077 -15.997,5.077 H -23.347 V 0 Z M -51.665,-80.414 V 57.069 c 0,2.882 0.61,4.937 1.836,6.161 1.223,1.225 3.206,1.837 5.945,1.837 h 40.209 c 17.868,0 31.2,-3.314 39.992,-9.943 8.79,-6.629 13.186,-16.572 13.186,-29.829 0,-8.36 -2.236,-15.566 -6.701,-21.618 C 38.333,-2.378 32.21,-6.917 24.427,-9.942 v -0.867 c 3.168,-1.157 6.196,-3.676 9.079,-7.568 2.882,-3.891 5.477,-8.789 7.783,-14.7 l 18.376,-45.824 c 0.573,-1.731 0.863,-2.955 0.863,-3.677 0,-1.298 -0.973,-2.305 -2.919,-3.026 -1.945,-0.721 -4.862,-1.08 -8.754,-1.08 h -6.486 c -3.026,0 -5.511,0.359 -7.457,1.08 -1.946,0.721 -3.209,1.728 -3.783,3.026 l -16.861,42.369 c -2.74,5.908 -5.838,10.018 -9.296,12.325 -3.459,2.302 -8.793,3.455 -15.997,3.455 h -12.322 v -55.985 c 0,-4.184 -3.821,-6.27 -11.458,-6.27 h -5.404 c -7.64,0 -11.456,2.086 -11.456,6.27" /></g><g
           transform="translate(1020.5439,539.6416)"
           id="g32"><path
             id="path34"
             style="fill:#333333;fill-opacity:1;fill-rule:nonzero;stroke:none"
             d="m 0,0 -15.782,47.556 c -0.723,1.872 -1.296,3.891 -1.73,6.051 -0.43,2.164 -0.793,4.328 -1.08,6.489 -0.145,0.288 -0.216,0.573 -0.216,0.865 h -0.864 l -0.216,-1.513 c -0.433,-2.019 -0.903,-4.039 -1.405,-6.055 -0.507,-2.02 -1.047,-3.965 -1.623,-5.837 L -39.129,0 Z m -84.524,-53.614 c 0,0.721 0.214,1.731 0.648,3.025 l 0.216,0.651 48.855,140.081 c 1.007,2.737 4.682,4.11 11.026,4.11 h 9.511 c 6.485,0 10.161,-1.373 11.024,-4.11 L 45.611,-49.938 c 0.433,-1.298 0.65,-2.522 0.65,-3.676 0,-2.885 -3.459,-4.321 -10.376,-4.321 h -6.702 c -6.343,0 -10.018,1.365 -11.024,4.106 l -9.945,29.615 h -55.34 l -9.945,-29.615 c -1.01,-2.741 -4.182,-4.106 -9.511,-4.106 h -6.053 c -7.927,0 -11.889,1.436 -11.889,4.321" /></g><g
           transform="translate(1104.2021,487.9766)"
           id="g36"><path
             id="path38"
             style="fill:#333333;fill-opacity:1;fill-rule:nonzero;stroke:none"
             d="m 0,0 v 121.271 h -36.75 c -2.02,0 -3.495,0.756 -4.432,2.269 -0.937,1.513 -1.403,3.856 -1.403,7.026 v 5.62 c 0,3.169 0.466,5.516 1.403,7.03 0.937,1.513 2.412,2.265 4.432,2.265 H 65.069 c 2.162,0 3.675,-0.752 4.538,-2.265 0.867,-1.514 1.299,-3.861 1.299,-7.03 v -5.62 c 0,-3.17 -0.432,-5.513 -1.299,-7.026 -0.863,-1.513 -2.376,-2.269 -4.538,-2.269 H 28.535 V 0 c 0,-4.184 -3.819,-6.27 -11.458,-6.27 H 11.458 C 3.817,-6.27 0,-4.184 0,0" /></g><g
           transform="translate(1197.8037,483.9727)"
           id="g40"><path
             id="path42"
             style="fill:#333333;fill-opacity:1;fill-rule:nonzero;stroke:none"
             d="m 0,0 c -1.296,1.225 -1.945,3.279 -1.945,6.164 v 135.323 c 0,2.882 0.649,4.937 1.945,6.161 1.297,1.225 3.313,1.837 6.052,1.837 h 75.661 c 2.018,0 3.494,-0.753 4.433,-2.265 0.935,-1.514 1.404,-3.861 1.404,-7.031 v -5.619 c 0,-3.17 -0.469,-5.513 -1.404,-7.026 -0.939,-1.513 -2.415,-2.27 -4.433,-2.27 H 26.373 V 87.659 h 49.288 c 2.017,0 3.492,-0.721 4.432,-2.161 0.936,-1.442 1.406,-3.82 1.406,-7.135 v -5.616 c 0,-3.173 -0.47,-5.517 -1.406,-7.029 -0.94,-1.513 -2.415,-2.266 -4.432,-2.266 H 26.373 V 22.377 H 81.93 c 2.017,0 3.494,-0.76 4.431,-2.273 0.936,-1.512 1.406,-3.856 1.406,-7.023 V 7.459 c 0,-3.17 -0.47,-5.51 -1.406,-7.022 -0.937,-1.514 -2.414,-2.274 -4.431,-2.274 H 6.052 C 3.313,-1.837 1.297,-1.225 0,0" /></g><g
           transform="translate(1364.4717,568.3906)"
           id="g44"><path
             id="path46"
             style="fill:#333333;fill-opacity:1;fill-rule:nonzero;stroke:none"
             d="m 0,0 c 3.602,0 6.988,0.975 10.16,2.917 3.168,1.949 5.653,4.539 7.459,7.783 1.8,3.244 2.702,6.812 2.702,10.703 0,6.193 -1.946,10.985 -5.837,14.376 -3.891,3.385 -9.225,5.077 -15.997,5.077 H -23.347 V 0 Z M -51.665,-80.414 V 57.069 c 0,2.882 0.61,4.937 1.837,6.161 1.223,1.225 3.205,1.837 5.944,1.837 h 40.209 c 17.868,0 31.2,-3.314 39.992,-9.943 8.789,-6.629 13.186,-16.572 13.186,-29.829 0,-8.36 -2.235,-15.566 -6.7,-21.618 C 38.334,-2.378 32.21,-6.917 24.427,-9.942 v -0.867 c 3.169,-1.157 6.196,-3.676 9.08,-7.568 2.881,-3.891 5.476,-8.789 7.782,-14.7 l 18.375,-45.824 c 0.574,-1.731 0.864,-2.955 0.864,-3.677 0,-1.298 -0.972,-2.305 -2.919,-3.026 -1.945,-0.721 -4.862,-1.08 -8.754,-1.08 h -6.486 c -3.025,0 -5.512,0.359 -7.457,1.08 -1.945,0.721 -3.209,1.728 -3.782,3.026 l -16.862,42.369 c -2.74,5.908 -5.837,10.018 -9.296,12.325 -3.459,2.302 -8.793,3.455 -15.996,3.455 h -12.323 v -55.985 c 0,-4.184 -3.821,-6.27 -11.458,-6.27 h -5.404 c -7.64,0 -11.456,2.086 -11.456,6.27" /></g></g></g><g
       style="font-style:normal;font-weight:normal;font-size:252.945px;line-height:1.25;font-family:sans-serif;font-variation-settings:normal;letter-spacing:0px;word-spacing:0px;opacity:1;vector-effect:none;fill:#333333;fill-opacity:1;stroke:none;stroke-width:1;stroke-linecap:butt;stroke-linejoin:miter;stroke-miterlimit:4;stroke-dasharray:none;stroke-dashoffset:0;stroke-opacity:1;stop-color:#000000;stop-opacity:1"
       id="text868"
       transform="scale(1,-1)"
       aria-label="WAHL"><path
         id="path947"
         style="font-style:normal;font-variant:normal;font-weight:normal;font-stretch:normal;font-size:252.945px;font-family:Audiowide;-inkscape-font-specification:Audiowide;font-variation-settings:normal;vector-effect:none;fill:#333333;fill-opacity:1;stroke-width:1;stroke-linecap:butt;stroke-linejoin:miter;stroke-miterlimit:4;stroke-dasharray:none;stroke-dashoffset:0;stroke-opacity:1;stop-color:#000000;stop-opacity:1"
         d="m 811.03955,-835.13007 -29.64199,165.99516 q -0.98807,4.94033 -4.4463,8.52207 -3.45823,3.58174 -8.39856,4.56981 -5.06384,0.86456 -9.63365,-1.11158 -4.4463,-1.97613 -7.03997,-6.17541 l -58.78996,-96.5835 -58.91346,96.5835 q -2.09964,3.58174 -5.80489,5.55787 -3.58174,1.97613 -7.78102,1.97613 -5.80489,0 -10.25119,-3.70524 -4.4463,-3.70525 -5.43437,-9.63365 l -29.88901,-165.99516 h 32.6062 l 21.24342,116.96236 50.63841,-80.77443 q 2.09964,-3.58174 5.68138,-5.55787 3.70525,-1.97614 7.90453,-1.97614 4.19928,0 7.78103,1.97614 3.58174,1.97613 5.92839,5.55787 l 50.39139,80.77443 21.24343,-116.96236 z" /><path
         id="path949"
         style="font-style:normal;font-variant:normal;font-weight:normal;font-stretch:normal;font-size:252.945px;font-family:Audiowide;-inkscape-font-specification:Audiowide;font-variation-settings:normal;vector-effect:none;fill:#333333;fill-opacity:1;stroke-width:1;stroke-linecap:butt;stroke-linejoin:miter;stroke-miterlimit:4;stroke-dasharray:none;stroke-dashoffset:0;stroke-opacity:1;stop-color:#000000;stop-opacity:1"
         d="m 1010.2584,-658.01917 h -32.11212 v -43.47492 H 865.25969 v 43.47492 h -32.11216 v -88.55545 q 0,-19.3908 6.66945,-35.6939 6.66945,-16.3031 18.52625,-28.03638 11.8568,-11.73329 28.03638,-18.27923 16.17959,-6.54594 35.32338,-6.54594 h 72.37586 q 3.33473,0 6.29895,1.23508 2.9642,1.23508 5.1873,3.45823 2.2232,2.22315 3.4583,5.18735 1.235,2.9642 1.235,6.29892 z m -144.99871,-75.58708 h 112.88659 v -69.41166 h -56.44329 q -1.4821,0 -6.29893,0.49403 -4.69331,0.37052 -10.99223,2.09964 -6.17542,1.72912 -13.09188,5.31086 -6.91647,3.58174 -12.72136,9.88066 -5.80489,6.29892 -9.63365,15.80906 -3.70525,9.38664 -3.70525,22.84904 z" /><path
         id="path951"
         style="font-style:normal;font-variant:normal;font-weight:normal;font-stretch:normal;font-size:252.945px;font-family:Audiowide;-inkscape-font-specification:Audiowide;font-variation-settings:normal;vector-effect:none;fill:#333333;fill-opacity:1;stroke-width:1;stroke-linecap:butt;stroke-linejoin:miter;stroke-miterlimit:4;stroke-dasharray:none;stroke-dashoffset:0;stroke-opacity:1;stop-color:#000000;stop-opacity:1"
         d="m 1079.9171,-762.75421 h 112.7631 v -72.37586 h 32.1122 v 177.1109 h -32.1122 v -72.37586 h -112.7631 v 72.37586 h -32.1121 v -177.1109 h 32.1121 z" /><path
         id="path953"
         style="font-style:normal;font-variant:normal;font-weight:normal;font-stretch:normal;font-size:252.945px;font-family:Audiowide;-inkscape-font-specification:Audiowide;font-variation-settings:normal;vector-effect:none;fill:#333333;fill-opacity:1;stroke-width:1;stroke-linecap:butt;stroke-linejoin:miter;stroke-miterlimit:4;stroke-dasharray:none;stroke-dashoffset:0;stroke-opacity:1;stop-color:#000000;stop-opacity:1"
         d="m 1424.9993,-658.01917 h -146.4808 q -3.4582,0 -6.4224,-1.23508 -2.9642,-1.23508 -5.1874,-3.33472 -2.0996,-2.22315 -3.3347,-5.18735 -1.2351,-2.9642 -1.2351,-6.42243 v -160.93132 h 32.1122 v 144.99875 h 130.5482 z" /></g></g></svg>
